<?xml version="1.0" standalone="no"?><!DOCTYPE svg PUBLIC "-//W3C//DTD SVG 1.1//EN" "http://www.w3.org/Graphics/SVG/1.1/DTD/svg11.dtd"><svg t="1618389337188" class="icon" viewBox="0 0 1024 1024" version="1.1" xmlns="http://www.w3.org/2000/svg" p-id="44827" xmlns:xlink="http://www.w3.org/1999/xlink" width="200" height="200"><defs><style type="text/css"></style></defs><path d="M509.811309 870.538932V523.195652c0-7.236609 7.237603-14.472222 14.473217-21.707836l296.685031-144.727195v14.473217c0 21.707836 21.713805 43.416666 43.420646 43.416666s43.420646-21.707836 43.420645-43.416666v-94.071931c0-14.473217-7.237603-28.945439-21.71281-36.182048L488.103473 9.41933c-14.473217-7.236609-36.181053-7.236609-43.417661 0L46.690252 240.979859c-14.473217 7.236609-21.709826 21.708831-21.709826 36.182048v455.883453c0 14.475207 7.236609 28.944444 21.709826 36.183043l397.99556 231.559534c14.472222 7.237603 28.944444 7.237603 43.417661 0l108.544153-57.890879c21.708831-14.468243 28.945439-36.176078 14.472223-57.888888-14.472222-21.707836-36.181053-28.945439-57.889884-14.469238l-28.945439 14.469238c-7.235614 0-14.472222-7.232629-14.472222-14.469238z m-36.181053-767.048665l274.98018 159.198423c14.469238 7.236609 14.469238 28.946434 0 36.182047l-274.979185 130.252984c-7.236609 7.236609-14.473217 7.236609-21.708831 0l-260.506962-137.489592c-14.472222-7.235614-14.472222-28.945439 0-36.181053l260.506962-151.962809c7.235614-7.235614 14.472222-7.235614 21.707836 0zM140.761188 363.997229l274.979185 137.489593s7.236609 7.236609 7.236608 21.707835v332.868074c0 14.475207-14.473217 28.945439-28.945439 21.713804l-274.979185-159.200412c-7.235614-7.237603-7.235614-14.475207-7.235613-21.707836V378.471441c0-14.473217 14.472222-28.945439 28.944444-14.473217z" fill="#1296db" p-id="44828"></path><path d="M466.385689 1007.689277c-7.477365 0-14.947765-1.856408-22.367428-5.566239L45.939133 770.518736c-13.815615-6.906315-22.450996-21.283031-22.450996-37.473376v-455.884448c0-16.190345 8.635381-30.566065 22.533569-37.516155L443.774521 8.223509c7.819596-7.548994 29.997006-7.638532 44.997498-0.13928l398.076143 231.606292c13.820589 6.904325 22.45597 21.280046 22.455971 37.471386v94.071931c0 22.664891-22.24506 44.908956-44.912936 44.908955-22.665886 0-44.912935-22.24506-44.912935-44.908955v-12.08456L525.161992 502.718458c-6.846624 6.849608-13.858394 13.917091-13.858394 20.476199v347.34527c0 6.313379 6.322333 12.744151 12.640686 12.969984l28.536552-14.265291c10.76836-7.15304 22.108764-9.396449 32.80052-6.478526 10.237105 2.790581 19.600723 10.196316 27.080077 21.414353 7.194824 10.794226 9.453156 22.165471 6.530258 32.882098-2.791576 10.23611-10.197311 19.598733-21.416341 27.077093l-0.125353 0.074614-108.544153 57.890879c-7.445529 3.72177-14.936822 5.584147-22.420155 5.584146zM463.605056 5.461779c-7.700213 0-14.515001 1.663405-17.864693 5.012103l-0.136296 0.13729-0.168131 0.097496L47.440376 242.269197c-12.96501 6.486484-20.96766 19.83949-20.96766 34.89271v455.883453c0 15.052225 8.00265 28.406225 20.885087 34.847941l398.078133 231.604303c13.879286 6.937156 28.038127 6.937156 41.999986-0.044769l108.443673-57.838151c10.577347-7.063503 17.537384-15.825231 20.132973-25.339073 2.689105-9.859058 0.56707-20.384673-6.134304-30.439718-7.073452-10.610177-15.851098-17.592102-25.382847-20.19167-9.861048-2.688111-20.385667-0.56707-30.437729 6.136294l-0.159177 0.093517L524.634717 886.499464h-0.351186c-8.057368 0-15.964511-7.906149-15.964511-15.961527V523.194657c0-7.851432 7.575856-15.429277 14.902996-22.757412l0.177085-0.17609 0.229812-0.115404 298.831938-145.772793v16.86088c0 20.766699 21.160663 41.924377 41.928357 41.924377 20.768688 0 41.928357-21.157678 41.928356-41.924377v-94.071931c0-15.05322-8.003645-28.406225-20.889066-34.846947L487.352354 10.708668c-6.982919-3.489967-15.83319-5.246889-23.747298-5.246889z m-61.679303 875.733094c-2.885093 0-5.77715-0.692422-8.560767-2.084231L118.135097 719.768959l-0.13928-0.13729c-7.672357-7.675342-7.672357-15.344714-7.672357-22.762387V378.470446c0-9.070135 5.262807-17.833853 12.515333-20.838328 6.171114-2.556789 12.841647-0.732217 18.802846 5.137454l274.982169 137.490588 0.171116 0.17211c0.313381 0.313381 7.673352 7.844468 7.673352 22.762387v332.868074c0 8.672191-4.932514 17.548328-12.272588 22.085882-3.280052 2.027524-6.771014 3.04626-10.27093 3.04626z m-281.95315-163.810592l274.807073 159.100927c5.119547 2.554799 10.776319 2.260321 15.847119-0.875477 6.494443-4.014258 10.857897-11.868675 10.857897-19.547V523.194657c0-12.474544-5.656772-19.375885-6.653621-20.494107L139.877753 365.222896l-0.171116-0.172111c-5.17128-5.16929-10.608188-6.781958-15.723756-4.661911-6.185042 2.561763-10.674843 10.165475-10.674843 18.080577V696.869282c0 7.074446 0 13.760898 6.66357 20.514004z m342.803735-281.362204c-3.951582 0-7.90217-1.893218-11.747302-5.682638L190.719056 292.954307c-7.174927-3.587464-11.649806-11.031003-11.649805-19.410705s4.474878-15.823241 11.678656-19.425628L451.00516 102.298425c7.704192-7.608686 15.837169-7.607691 23.540367-0.002985l274.813043 159.101922c7.123195 3.559608 11.596083 11.003147 11.596083 19.382849s-4.474878 15.823241-11.676667 19.425628l-274.777228 130.157477c-3.837173 3.772507-7.780797 5.658761-11.72442 5.658761z m0-336.491351c-3.228319 0-6.456639 1.672359-9.799366 5.014092l-0.302438 0.234787L192.167572 256.743409c-6.271595 3.138782-10.113742 9.558611-10.114738 16.801188 0 7.242578 3.843143 13.662406 10.030175 16.75642l260.734785 137.608975 0.159178 0.159178c3.310893 3.311888 6.607857 4.990216 9.799366 4.990216 3.191509 0 6.488474-1.678328 9.799367-4.989221l0.183054-0.183054 0.233792-0.11043 274.979185-130.252984c6.156191-3.080085 9.998339-9.500909 9.998339-16.742491s-3.842148-13.662406-10.02719-16.75642L472.713991 104.684098l-0.138286-0.13928c-3.342728-3.341733-6.571047-5.014092-9.799367-5.014092z" fill="#1296db" p-id="44829"></path><path d="M915.042483 544.906473v-50.65427h79.596724v347.34129c0 115.779767-57.889883 180.907254-173.66965 180.907254-50.651285 0-94.071931-7.237603-115.779767-28.944445-28.944444-21.707836-43.420646-50.65228-50.653275-94.072926h79.598714c7.237603 21.707836 14.475207 36.183043 28.944444 50.65228 14.475207 7.237603 36.183043 14.475207 65.128482 14.475207 65.127487 0 94.071931-36.183043 94.071931-108.541168v-57.890879c-28.944444 43.415672-65.127487 65.121518-115.779767 65.121518-50.658249 0-94.071931-14.469238-123.01737-50.651285-28.946434-36.183043-43.419651-79.597719-43.419651-137.487603 0-57.891873 14.473217-101.310529 43.419651-137.491582 28.945439-36.182048 72.359121-50.65427 123.01737-50.65427 43.414677 0 79.597719 21.708831 108.542164 57.890879zM741.372832 581.087525c-21.713805 21.707836-28.944444 57.890878-28.944444 94.073921 0 36.177073 7.230639 65.121518 21.706841 86.835323 14.475207 21.707836 43.420646 36.183043 79.596724 36.183042 36.183043 0 57.890878-14.475207 79.603689-36.183042 14.469238-21.713805 28.944444-50.658249 28.944444-94.072926 0-36.182048-7.237603-72.3631-28.944444-94.072926-21.713805-21.707836-43.420646-36.181053-79.603689-36.181053-28.944444 14.472222-57.889883 21.708831-72.359121 43.417661z" fill="#1296db" p-id="44830"></path><path d="M820.969557 1023.993036c-58.771329 0-96.965978-9.587462-116.759704-29.307568-28.303755-21.259154-43.600715-49.66339-51.14573-94.957356l-0.289504-1.737025h82.436053l0.340242 1.019731c6.780963 20.336919 13.614653 35.038954 28.413189 49.898177 13.087378 6.509366 34.797203 14.210574 64.244052 14.210574 63.161644 0 92.579642-34.016238 92.579642-107.050869v-53.055861c-29.449833 42.122354-65.88159 61.780779-114.287478 61.780779-55.216696 0-96.998808-17.230968-124.182351-51.212386-29.845787-37.307234-43.74696-81.289975-43.746959-138.419786 0-57.132795 13.900178-101.118521 43.746959-138.42476 27.185533-33.982413 68.96665-51.213381 124.182351-51.213381 40.582312 0 76.57832 18.56408 107.049874 55.192819v-47.956211h82.582298v348.83358c0 58.612151-14.743819 103.997645-43.823564 134.894004-29.667707 31.52312-73.856385 47.505539-131.33937 47.505539zM656.302391 900.975666c7.514174 43.500235 22.45796 70.893693 49.782772 91.38581l0.160173 0.13928c19.182882 19.182882 56.70998 28.507701 114.724221 28.507701 112.63999 0 172.178356-62.040438 172.178355-179.414964V495.744492h-76.61314v53.416l-2.656275-3.321836c-30.434744-38.042435-66.561079-57.330772-107.378178-57.330772-54.262625 0-95.259793 16.854911-121.85239 50.095158-29.40009 36.746133-43.092342 80.138923-43.092342 136.558404 0 56.414507 13.692252 99.806302 43.092342 136.554424 26.590607 33.239253 67.587774 50.093169 121.85239 50.093169 48.824723 0 85.219671-20.482169 114.538182-64.456951l2.733874-4.100811v62.817423c0 37.245553-7.512185 64.190329-22.968323 82.372382-15.822247 18.614817-39.56855 27.663065-72.595897 27.663065-16.663898 0-41.606022-2.538882-65.796032-14.634384l-0.21688-0.10844-0.171116-0.171115c-15.082071-15.082071-22.123687-29.903489-28.962351-50.214542h-76.759385zM813.730958 799.672101c-35.232952 0-65.452806-13.774826-80.838309-36.847609-14.569718-21.85408-21.957546-51.348682-21.957545-87.663046 0-54.206913 15.894871-81.586443 29.278717-95.025006 10.988224-16.385337 30.300438-24.792895 50.740823-33.693904 7.211737-3.140772 14.668209-6.386998 22.108764-10.107774l0.31537-0.157187h0.35218c36.545171 0 58.675822 14.638364 80.65824 36.618791 13.404738 13.404738 29.382182 40.789242 29.382182 95.127477 0 45.281033-15.602383 74.502048-29.195148 94.899654l-0.187034 0.228818c-21.986396 21.980427-44.117048 36.619786-80.65824 36.619786z m0.351186-260.508953c-7.406729 3.688939-14.790577 6.904325-21.936654 10.016246-20.949753 9.121867-39.042269 16.999165-49.531073 32.735854l-0.187033 0.226828c-13.004804 13.002815-28.507701 39.694897-28.507701 93.01937 0 35.715459 7.218701 64.651944 21.456136 86.007599 14.830372 22.240086 44.122022 35.518476 78.355139 35.518477 35.456795 0 57.017392-14.245394 78.443683-35.641839 13.340072-20.042441 28.612161-48.734191 28.612161-93.12184 0-53.314524-15.502897-80.011581-28.507701-93.01738-21.388486-21.383512-42.886406-35.649798-78.196957-35.743315z" fill="#1296db" p-id="44831"></path></svg>