<?xml version="1.0" standalone="no"?><!DOCTYPE svg PUBLIC "-//W3C//DTD SVG 1.1//EN" "http://www.w3.org/Graphics/SVG/1.1/DTD/svg11.dtd"><svg t="1618565228719" class="icon" viewBox="0 0 1024 1024" version="1.1" xmlns="http://www.w3.org/2000/svg" p-id="3302" xmlns:xlink="http://www.w3.org/1999/xlink" width="200" height="200"><defs><style type="text/css"></style></defs><path d="M249.6 819.2c19.2 0 38.4-6.4 57.6-19.2l6.4 0L134.4 620.8l0 6.4c-12.8 19.2-19.2 38.4-19.2 57.6l-64 198.4L249.6 819.2 249.6 819.2 249.6 819.2 249.6 819.2zM889.6 102.4 832 44.8c-32-32-83.2-32-115.2 0l-57.6 57.6L832 275.2l57.6-57.6C921.6 185.6 921.6 134.4 889.6 102.4L889.6 102.4 889.6 102.4 889.6 102.4zM774.4 332.8 601.6 160 198.4 563.2l172.8 172.8L774.4 332.8 774.4 332.8 774.4 332.8 774.4 332.8z" p-id="3303" fill="#707070"></path><path d="M0 940.8l1024 0 0 64L0 1004.8 0 940.8 0 940.8z" p-id="3304" fill="#707070"></path></svg>