<?xml version="1.0" standalone="no"?><!DOCTYPE svg PUBLIC "-//W3C//DTD SVG 1.1//EN" "http://www.w3.org/Graphics/SVG/1.1/DTD/svg11.dtd"><svg t="1618389070237" class="icon" viewBox="0 0 1024 1024" version="1.1" xmlns="http://www.w3.org/2000/svg" p-id="31308" xmlns:xlink="http://www.w3.org/1999/xlink" width="200" height="200"><defs><style type="text/css"></style></defs><path d="M950.857143 512h-73.142857V182.857143a36.571429 36.571429 0 0 0-36.571429-36.571429H182.857143a36.571429 36.571429 0 0 0-36.571429 36.571429v658.285714a36.571429 36.571429 0 0 0 36.571429 36.571429h256v73.142857H146.285714a73.142857 73.142857 0 0 1-73.142857-73.142857V146.285714a73.142857 73.142857 0 0 1 73.142857-73.142857h731.428572a73.142857 73.142857 0 0 1 73.142857 73.142857v365.714286zM320 431.286857h384.804571a18.285714 18.285714 0 0 1 18.285715 18.285714v36.571429a18.285714 18.285714 0 0 1-18.285715 18.285714H320.036571a18.285714 18.285714 0 0 1-18.285714-18.285714v-36.571429a18.285714 18.285714 0 0 1 18.285714-18.285714z m0-146.285714h238.518857a18.285714 18.285714 0 0 1 18.285714 18.285714v36.571429a18.285714 18.285714 0 0 1-18.285714 18.285714H320.036571a18.285714 18.285714 0 0 1-18.285714-18.285714v-36.571429a18.285714 18.285714 0 0 1 18.285714-18.285714z m0 292.571428h384.804571a18.285714 18.285714 0 0 1 18.285715 18.285715v36.571428a18.285714 18.285714 0 0 1-18.285715 18.285715H320.036571a18.285714 18.285714 0 0 1-18.285714-18.285715v-36.571428a18.285714 18.285714 0 0 1 18.285714-18.285715z m303.762286 359.131429l-64 12.324571 12.288-64.036571 215.917714-215.917714 51.712 51.712-215.917714 215.917714z m272.164571-375.588571l51.712 51.712-51.712 51.748571-51.712-51.748571 51.712-51.712z" p-id="31309" fill="#1296db"></path></svg>