<?xml version="1.0" standalone="no"?><!DOCTYPE svg PUBLIC "-//W3C//DTD SVG 1.1//EN" "http://www.w3.org/Graphics/SVG/1.1/DTD/svg11.dtd"><svg t="1618387434290" class="icon" viewBox="0 0 1024 1024" version="1.1" xmlns="http://www.w3.org/2000/svg" p-id="12035" xmlns:xlink="http://www.w3.org/1999/xlink" width="200" height="200"><defs><style type="text/css"></style></defs><path d="M144.384 383.744c-16.9472 0-30.72-13.7728-30.72-30.72V219.2896c0-62.1056 50.5344-112.64 112.64-112.64h155.8528c16.9472 0 30.72 13.7728 30.72 30.72s-13.7728 30.72-30.72 30.72H226.304c-28.2112 0-51.2 22.9888-51.2 51.2v133.6832c0 16.9984-13.7728 30.7712-30.72 30.7712zM879.7696 383.744c-16.9472 0-30.72-13.7728-30.72-30.72V219.2896c0-28.2112-22.9888-51.2-51.2-51.2h-155.8528c-16.9472 0-30.72-13.7728-30.72-30.72s13.7728-30.72 30.72-30.72h155.8528c62.1056 0 112.64 50.5344 112.64 112.64v133.6832c0 16.9984-13.7728 30.7712-30.72 30.7712zM382.1568 903.6288H226.304c-62.1056 0-112.64-50.5344-112.64-112.64v-133.6832c0-16.9472 13.7728-30.72 30.72-30.72s30.72 13.7728 30.72 30.72v133.6832c0 28.2112 22.9888 51.2 51.2 51.2h155.8528c16.9472 0 30.72 13.7728 30.72 30.72s-13.7728 30.72-30.72 30.72zM797.8496 903.6288h-155.8528c-16.9472 0-30.72-13.7728-30.72-30.72s13.7728-30.72 30.72-30.72h155.8528c28.2112 0 51.2-22.9888 51.2-51.2v-133.6832c0-16.9472 13.7728-30.72 30.72-30.72s30.72 13.7728 30.72 30.72v133.6832c0 62.1056-50.5344 112.64-112.64 112.64z" fill="#707070" p-id="12036"></path><path d="M950.3744 537.6512H75.8784c-16.9472 0-30.72-13.7728-30.72-30.72s13.7728-30.72 30.72-30.72h874.5472c16.9472 0 30.72 13.7728 30.72 30.72s-13.7728 30.72-30.7712 30.72z" fill="#707070" p-id="12037"></path></svg>