<?xml version="1.0" standalone="no"?><!DOCTYPE svg PUBLIC "-//W3C//DTD SVG 1.1//EN" "http://www.w3.org/Graphics/SVG/1.1/DTD/svg11.dtd"><svg t="1618389290094" class="icon" viewBox="0 0 1024 1024" version="1.1" xmlns="http://www.w3.org/2000/svg" p-id="40745" xmlns:xlink="http://www.w3.org/1999/xlink" width="200" height="200"><defs><style type="text/css"></style></defs><path d="M144.384 383.744c-16.947 0-30.72-13.773-30.72-30.72V219.29c0-62.106 50.534-112.64 112.64-112.64h155.853c16.947 0 30.72 13.772 30.72 30.72s-13.773 30.72-30.72 30.72H226.304c-28.211 0-51.2 22.988-51.2 51.2v133.683c0 16.998-13.773 30.771-30.72 30.771z m735.386 0c-16.948 0-30.72-13.773-30.72-30.72V219.29c0-28.212-22.99-51.2-51.2-51.2H641.997c-16.947 0-30.72-13.773-30.72-30.72s13.773-30.72 30.72-30.72H797.85c62.105 0 112.64 50.534 112.64 112.64v133.683c0 16.998-13.773 30.771-30.72 30.771zM382.157 903.629H226.304c-62.106 0-112.64-50.535-112.64-112.64V657.306c0-16.948 13.773-30.72 30.72-30.72s30.72 13.772 30.72 30.72v133.683c0 28.211 22.989 51.2 51.2 51.2h155.853c16.947 0 30.72 13.773 30.72 30.72s-13.773 30.72-30.72 30.72z m415.693 0H641.997c-16.947 0-30.72-13.773-30.72-30.72s13.773-30.72 30.72-30.72H797.85c28.21 0 51.2-22.989 51.2-51.2V657.306c0-16.948 13.772-30.72 30.72-30.72s30.72 13.772 30.72 30.72v133.683c0 62.105-50.535 112.64-112.64 112.64z" fill="#1296db" p-id="40746"></path><path d="M950.374 537.651H75.878c-16.947 0-30.72-13.773-30.72-30.72s13.773-30.72 30.72-30.72h874.548c16.947 0 30.72 13.773 30.72 30.72s-13.773 30.72-30.772 30.72z" fill="#1296db" p-id="40747"></path></svg>