<?xml version="1.0" standalone="no"?><!DOCTYPE svg PUBLIC "-//W3C//DTD SVG 1.1//EN" "http://www.w3.org/Graphics/SVG/1.1/DTD/svg11.dtd"><svg t="1618540003080" class="icon" viewBox="0 0 1024 1024" version="1.1" xmlns="http://www.w3.org/2000/svg" p-id="12188" xmlns:xlink="http://www.w3.org/1999/xlink" width="200" height="200"><defs><style type="text/css"></style></defs><path d="M512.042667 981.376c258.730667 0 469.333333-210.602667 469.333333-469.461333 0-258.730667-210.602667-469.333333-469.333333-469.333334-258.858667 0-469.333333 210.602667-469.333334 469.333334 0.042667 258.901333 210.474667 469.461333 469.333334 469.461333m0 42.581333c-282.794667 0-512-229.205333-512-512.042666 0-282.666667 229.205333-511.872 512-511.872 282.666667 0 511.914667 229.205333 511.914666 511.872 0 282.837333-229.205333 512.042667-511.914666 512.042666z" p-id="12189" fill="#8a8a8a"></path><path d="M765.312 594.176l-171.434667 171.690667c-18.901333 18.858667-52.565333 15.445333-76.288-7.082667L290.56 530.858667a61.525333 61.525333 0 0 1-18.986667-35.328l-24.746666-195.925334c-5.162667-30.677333 14.464-54.101333 44.629333-53.717333l8.106667 0.896 196.266666 24.704c12.928 2.048 25.6 8.746667 35.328 18.986667l227.072 227.328c23.04 23.04 26.624 57.642667 7.082667 76.373333zM362.922667 310.741333c-29.909333-3.029333-51.584 18.773333-48.512 48.512 3.029333 29.909333 29.781333 56.618667 59.562666 59.690667 29.781333 3.029333 51.584-18.773333 48.512-48.512-3.072-29.909333-29.824-56.618667-59.562666-59.690667z" p-id="12190" fill="#8a8a8a"></path></svg>